# xmcd
#
# Track frame offsets: 
#        150
#        15062
#        34648
#        55456
#        71817
#        88859
#        110679
#        127976
#        142602
#        159426
#        177176
#        194133
#        210806
#        222857
#
# Disc length: 3214 seconds
#
# Revision: 0
# Processed by: cddbd v1.5.2PL0 Copyright (c) Steve Scherf et al.
# Submitted via: ExactAudioCopy v1.3
#
DISCID=bb0c8c0e
DTITLE=五木ひろし - 70years 70songs Disc 1 1948-1959 FKCX-5090-4
DYEAR=1900
DGENRE=JPop
TTITLE0=憧れのハワイ航路
TTITLE1=湯の町エレジー
TTITLE2=長崎の鐘
TTITLE3=青い山脈
TTITLE4=リンゴ追分
TTITLE5=ふるさとの燈台
TTITLE6=おんな船頭唄
TTITLE7=別れの一本杉
TTITLE8=逢いたいなああの人に
TTITLE9=柿の木坂の家
TTITLE10=有楽町で逢いましょう
TTITLE11=古城
TTITLE12=黒い花びら
TTITLE13=南国土佐を後にして
EXTD=
EXTT0=
EXTT1=
EXTT2=
EXTT3=
EXTT4=
EXTT5=
EXTT6=
EXTT7=
EXTT8=
EXTT9=
EXTT10=
EXTT11=
EXTT12=
EXTT13=
PLAYORDER=
